<?xml version="1.0" encoding="UTF-8"?>
<svg version="1.1" xmlns="http://www.w3.org/2000/svg" width="512" height="512">
<path d="M0 0 C8.2397746 4.93045603 12.79666327 15.23683885 17.625 23.1875 C18.29402344 24.28255859 18.96304688 25.37761719 19.65234375 26.50585938 C20.99850039 28.70925063 22.34323905 30.91350886 23.68652344 33.11865234 C27.02485139 38.58905487 30.38734899 44.04452201 33.75 49.5 C38.88564045 47.94958918 43.53272555 45.77187518 48.32421875 43.40234375 C49.12986771 43.00801651 49.93551666 42.61368927 50.76557922 42.20741272 C53.32464187 40.95431809 55.88121763 39.69625534 58.4375 38.4375 C61.00481005 37.17583813 63.572645 35.9152751 66.14155579 34.65687561 C67.73630371 33.87543142 69.33008108 33.09200274 70.92277527 32.30638123 C71.64395035 31.9525386 72.36512543 31.59869598 73.1081543 31.23413086 C73.74069626 30.92261581 74.37323822 30.61110077 75.02494812 30.29014587 C81.67156291 27.24571845 88.41127573 27.77334737 95.17358398 30.20898438 C97.12160259 30.98614007 99.06222101 31.7820335 100.99609375 32.59375 C102.04668472 33.01869751 103.0972757 33.44364502 104.17970276 33.88146973 C107.5224831 35.23818017 110.8548318 36.61866332 114.1875 38 C116.38933659 38.89739876 118.59180648 39.79324531 120.79492188 40.6875 C126.12764806 42.85679893 131.4461582 45.05882081 136.76196289 47.26919556 C139.62204217 48.4472928 142.49196048 49.59651764 145.3671875 50.73706055 C147.06641337 51.42234562 148.76563255 52.1076473 150.46484375 52.79296875 C151.22131699 53.08534424 151.97779022 53.37771973 152.75718689 53.67895508 C160.35661092 56.78173083 164.85655156 62.06556612 169.75 68.5 C171.22544216 70.29473505 172.70452993 72.08648015 174.1875 73.875 C174.90808594 74.76960938 175.62867188 75.66421875 176.37109375 76.5859375 C179.10905706 79.93983016 181.92237023 83.22174309 184.75 86.5 C207.99486474 113.50209284 207.99486474 113.50209284 208.1875 122.25 C208.22746094 123.23484375 208.26742187 124.2196875 208.30859375 125.234375 C206.99532747 132.91193169 201.35836172 138.33545024 195.9375 143.5625 C195.31294922 144.17609375 194.68839844 144.7896875 194.04492188 145.421875 C190.45124437 148.92954357 186.77377754 152.29025691 182.9375 155.53125 C179.10010488 158.98490561 175.52424795 162.70708313 171.89379883 166.37573242 C168.25923726 170.03380281 164.56070048 173.52573814 160.61328125 176.84765625 C158.32961724 178.87279226 156.24399956 181.05369034 154.125 183.25 C148.93325302 188.45946625 144.40546158 190.96918125 137.05078125 191.5625 C130.48996457 191.38427748 125.21427263 188.17191322 120.75 183.5 C119.44709167 180.85485026 118.6156783 178.3375011 117.75 175.5 C114.65364903 182.07084533 112.22332262 188.73048515 110 195.640625 C109.49001465 197.20668488 109.49001465 197.20668488 108.96972656 198.80438232 C107.89196499 202.11814039 106.8210015 205.43405177 105.75 208.75 C105.03167012 210.95977203 104.31292364 213.16940868 103.59375 215.37890625 C102.22479493 219.58669006 100.86929547 223.79844878 99.5234375 228.01367188 C98.49202517 231.2369724 97.43161517 234.4414228 96.2890625 237.62695312 C95.90492188 238.73490234 95.52078125 239.84285156 95.125 240.984375 C94.80273438 241.86319336 94.48046875 242.74201172 94.1484375 243.64746094 C93.1206156 251.0059604 96.6800418 258.50871122 99.2421875 265.28125 C99.75588142 266.66091446 99.75588142 266.66091446 100.279953 268.06845093 C101.01184746 270.03239297 101.7463238 271.99537448 102.48318481 273.9574585 C103.63648961 277.03061583 104.78123841 280.10683551 105.92358398 283.18408203 C109.1483286 291.86668553 112.38784278 300.54360618 115.65130615 309.21173096 C116.78592459 312.23284963 117.91056097 315.25761174 119.03253174 318.28344727 C119.54725216 319.66371483 120.06681057 321.04218914 120.5914917 322.41870117 C126.76480347 338.61758323 126.76480347 338.61758323 123.125 347.6875 C122.82335937 348.48542969 122.52171875 349.28335937 122.2109375 350.10546875 C117.65643925 357.57046187 109.65176026 359.84647684 101.86914062 362.70751953 C99.7258356 363.50903659 97.60606717 364.357932 95.484375 365.21484375 C86.13873757 368.89104947 76.20291927 372.29484473 66.28125 368.57421875 C60.76476416 365.41458973 56.85707494 361.11672258 54.375 355.25 C53.11178137 347.67068825 53.89670571 341.53167789 58.3671875 335.18359375 C62.10494604 330.63281994 66.34528679 328.50174563 71.75 326.5 C72.74 326.5 73.73 326.5 74.75 326.5 C72.5010786 320.25956144 70.24931005 314.02015513 67.99630737 307.78118896 C66.81656337 304.51126256 65.63973556 301.24029681 64.46313477 297.96923828 C59.68250693 284.67720587 59.68250693 284.67720587 54.6171875 271.4921875 C54.19429443 270.42097656 53.77140137 269.34976562 53.33569336 268.24609375 C52.6056554 266.42061077 51.8583237 264.60187796 51.08813477 262.79296875 C46.77384049 251.97074509 48.44192836 241.46340897 52.109375 230.71484375 C52.45502502 229.6518959 52.80067505 228.58894806 53.15679932 227.49378967 C54.25341612 224.13553562 55.37609523 220.78670717 56.5 217.4375 C57.23872652 215.19002671 57.97571948 212.94198284 58.7109375 210.69335938 C60.07244118 206.54059772 61.44266296 202.39100646 62.82714844 198.24584961 C63.13873901 197.31215546 63.45032959 196.3784613 63.7713623 195.41647339 C64.46987637 193.3348065 65.17403284 191.25502943 65.88195801 189.17654419 C66.24865601 188.09420502 66.615354 187.01186584 66.99316406 185.89672852 C67.32930725 184.91132584 67.66545044 183.92592316 68.01177979 182.91065979 C68.84760323 180.60146982 68.84760323 180.60146982 68.75 178.5 C67.78513672 180.10101563 67.78513672 180.10101563 66.80078125 181.734375 C62.22644796 189.29017805 57.60127176 196.80499264 52.78027344 204.20654297 C51.67255002 205.90864659 50.57297761 207.61608148 49.48144531 209.32861328 C47.09981606 213.04191393 44.73819545 216.61653579 41.85546875 219.9609375 C36.66838843 226.19863625 35.29737067 230.81684362 35.98892212 238.81227112 C36.15876114 240.39986488 36.15876114 240.39986488 36.33203125 242.01953125 C36.43607269 243.14838242 36.54011414 244.27723358 36.64730835 245.44029236 C36.99335897 249.12929264 37.37033592 252.81431917 37.75 256.5 C37.99827042 259.03211712 38.2454123 261.56434514 38.49145508 264.09667969 C39.32670682 272.59543085 40.20188514 281.089926 41.08520508 289.58380127 C41.5644405 294.19207923 42.03701311 298.80100695 42.5078125 303.41015625 C42.63278107 304.59456802 42.75774963 305.7789798 42.88650513 306.99928284 C44.83081314 326.09947776 44.83081314 326.09947776 40.75 333.5 C38.3125 336.3125 38.3125 336.3125 35.75 338.5 C35.151875 339.056875 34.55375 339.61375 33.9375 340.1875 C27.33396482 344.14962111 18.85005308 344.08087322 11.375 344.625 C10.3025 344.71136719 9.23 344.79773438 8.125 344.88671875 C-12.86049232 346.4950959 -12.86049232 346.4950959 -19.25 342.5 C-24.09726536 338.08296529 -27.73028196 333.54292286 -28.5859375 326.88671875 C-28.69248594 319.52422174 -27.70919111 314.26071867 -22.63671875 308.74609375 C-17.72855856 304.22971575 -13.13974448 302.65617069 -6.5546875 301.95703125 C-5.34401611 301.82711792 -5.34401611 301.82711792 -4.10888672 301.69458008 C-3.4954541 301.63036865 -2.88202148 301.56615723 -2.25 301.5 C-2.33991714 300.60765656 -2.42983429 299.71531311 -2.5224762 298.79592896 C-3.37146123 290.35293308 -4.21090814 281.90905351 -5.03987217 273.46406746 C-5.4662982 269.12329413 -5.89629876 264.78293924 -6.3347168 260.44335938 C-6.75831854 256.2490802 -7.17220587 252.05394194 -7.5796032 247.85805893 C-7.73606488 246.26389721 -7.8959214 244.67006462 -8.0593586 243.07660294 C-10.3343182 220.8377806 -10.3343182 220.8377806 -5.0625 212.25 C-4.71646729 211.67685059 -4.37043457 211.10370117 -4.01391602 210.51318359 C-2.78226919 208.49356599 -1.51894384 206.49638699 -0.25 204.5 C0.24725586 203.71077148 0.74451172 202.92154297 1.25683594 202.10839844 C4.13307719 197.54722749 7.03083533 193.00026778 9.94140625 188.4609375 C13.91918973 182.24984923 17.84119462 176.00467252 21.75 169.75 C22.36045166 168.77498535 22.97090332 167.7999707 23.59985352 166.79541016 C24.76960685 164.92245344 25.93539875 163.04701592 27.09692383 161.16894531 C28.15939577 159.45354976 29.23139773 157.74400056 30.31518555 156.04199219 C34.46365504 149.39746089 37.53350737 142.46271895 40.5625 135.25 C41.68301711 132.61526482 42.80990002 129.98327302 43.9375 127.3515625 C44.23409012 126.65799652 44.53068024 125.96443054 44.83625793 125.24984741 C48.80580152 115.99476989 52.93956624 106.81247911 57.0625 97.625 C57.44661041 96.76837769 57.83072083 95.91175537 58.22647095 95.0291748 C60.39859511 90.18504261 62.5731058 85.34199039 64.75 80.5 C63.93321777 80.88333496 63.11643555 81.26666992 62.27490234 81.66162109 C59.22339334 83.09183992 56.17052174 84.51906762 53.11669922 85.94433594 C51.79908958 86.56001723 50.4820226 87.17686131 49.16552734 87.79492188 C47.26543829 88.68671235 45.36339133 89.57420505 43.4609375 90.4609375 C42.31931152 90.99509277 41.17768555 91.52924805 40.00146484 92.07958984 C33.15773789 95.06928825 26.97246281 97.00300387 19.60546875 94.8828125 C10.10068154 90.77558132 5.42039522 79.92736637 0.3125 71.5 C-1.09706328 69.18634159 -2.50935358 66.87435332 -3.921875 64.5625 C-4.27892014 63.97734619 -4.63596527 63.39219238 -5.00382996 62.78930664 C-7.45607446 58.77707635 -9.94398926 54.78942124 -12.453125 50.8125 C-13.12287354 49.7503125 -13.79262207 48.688125 -14.48266602 47.59375 C-15.74782186 45.59149511 -17.01632275 43.59134828 -18.28881836 41.59375 C-30.1719548 22.75273534 -30.1719548 22.75273534 -28.25 11.5 C-26.05830644 5.79788201 -22.62514029 2.42127189 -17.25 -0.5 C-11.59165621 -2.3861146 -5.51345061 -2.41147069 0 0 Z M145.75 103.5 C145.32178955 104.52770508 144.8935791 105.55541016 144.45239258 106.61425781 C136.52148438 125.6484375 136.52148438 125.6484375 135.51486206 128.06359863 C134.85346242 129.65144447 134.19275219 131.23957765 133.53274536 132.82800293 C132.08634494 136.30705731 130.63399696 139.78264859 129.14599609 143.24414062 C128.68918457 144.31341797 128.23237305 145.38269531 127.76171875 146.484375 C127.36815186 147.39413086 126.97458496 148.30388672 126.5690918 149.24121094 C125.5795487 151.56959681 125.5795487 151.56959681 125.75 154.5 C129.68214301 152.91060574 132.08020346 150.33657498 135 147.3125 C138.70186977 143.52802653 142.46533446 139.90589653 146.4921875 136.46875 C149.63521694 133.72811533 152.69006757 130.89526688 155.75 128.0625 C156.63341064 127.24471069 156.63341064 127.24471069 157.53466797 126.41040039 C158.94053082 125.1077449 160.34537431 123.8039894 161.75 122.5 C160.15103806 118.8353521 157.86916577 116.05624414 155.3125 113 C150.88184307 107.68613139 150.88184307 107.68613139 149.08984375 105.15625 C148.64769531 104.6096875 148.20554687 104.063125 147.75 103.5 C147.09 103.5 146.43 103.5 145.75 103.5 Z M69.75 175.5 C70.75 177.5 70.75 177.5 70.75 177.5 Z " fill="#010102" transform="translate(296.25,142.5)"/>
<path d="M0 0 C6.2836119 4.63790402 9.48136822 9.84875482 11.5390625 17.28515625 C11.77960358 18.09823746 12.02014465 18.91131866 12.26797485 19.7490387 C12.79095718 21.52655736 13.3055194 23.30657017 13.81262207 25.08868408 C14.65874576 28.05583836 15.53155808 31.0141861 16.40917969 33.97216797 C17.99216769 39.33025791 19.53436208 44.69903665 21.05908203 50.07397461 C21.69047452 52.28909082 22.32858683 54.5023018 22.97314453 56.71362305 C23.92193082 59.97026143 24.84977601 63.23225246 25.7734375 66.49609375 C26.06084808 67.46824326 26.34825867 68.44039276 26.64437866 69.44200134 C28.85557728 77.39788697 30.85053541 86.80383063 26.625 94.375 C21.1472809 101.78590275 11.79376389 104.73587311 3.5390625 108.01953125 C2.40093109 108.47857346 1.26279968 108.93761566 0.09017944 109.41056824 C-2.30024868 110.37293866 -4.69215473 111.3316454 -7.08544922 112.28686523 C-10.76230334 113.75491232 -14.43417604 115.2349038 -18.10546875 116.71679688 C-20.43201077 117.65174095 -22.75882422 118.58600995 -25.0859375 119.51953125 C-26.18795502 119.96319534 -27.28997253 120.40685944 -28.42538452 120.8639679 C-29.44049103 121.26826523 -30.45559753 121.67256256 -31.50146484 122.08911133 C-32.3966684 122.44709305 -33.29187195 122.80507477 -34.21420288 123.17390442 C-36.375 123.9375 -36.375 123.9375 -38.375 123.9375 C-37.38902358 131.98911894 -36.39809634 140.04010791 -35.40122509 148.09038448 C-34.93824608 151.83040049 -34.47683446 155.57059459 -34.01928711 159.3112793 C-32.85036901 168.85968559 -31.63603192 178.40079376 -30.375 187.9375 C-30.25879303 188.8523114 -30.14258606 189.7671228 -30.02285767 190.70965576 C-28.55343513 202.01681645 -25.05983991 212.02436056 -20.76538086 222.54504395 C-19.66518509 225.24220564 -18.58693856 227.94729271 -17.51367188 230.65527344 C-14.57260169 238.06139799 -11.58225359 245.44619434 -8.54296875 252.8125 C-8.16422607 253.7519043 -7.7854834 254.69130859 -7.39526367 255.65917969 C-6.75274282 257.25141369 -6.09251411 258.83672572 -5.4074707 260.41113281 C-0.56602864 272.46927513 -4.18593907 284.4470419 -7.93359375 296.23046875 C-8.40356539 297.75361949 -8.87196652 299.2772556 -9.33888245 300.80134583 C-10.56025724 304.77250875 -11.80352486 308.73647473 -13.05151367 312.69934082 C-14.32277439 316.75150984 -15.5710297 320.81075405 -16.82226562 324.86914062 C-18.64850653 330.77709878 -20.48026186 336.68328761 -22.33374023 342.58276367 C-22.89000343 344.35595222 -22.89000343 344.35595222 -23.45750427 346.16496277 C-24.375 348.9375 -24.375 348.9375 -25.375 350.9375 C-24.50488281 351.08445312 -24.50488281 351.08445312 -23.6171875 351.234375 C-14.98628339 352.88649526 -9.46271944 356.79480593 -4.375 363.9375 C-2.33434558 370.05946326 -2.49947806 377.35701428 -4.5625 383.4375 C-8.22331023 388.48689342 -12.29179744 392.38869903 -18.1875 394.625 C-26.64640396 395.83341485 -34.0861901 393.71728926 -42.15600586 391.421875 C-44.29899193 390.81631707 -46.44835068 390.2394363 -48.59960938 389.6640625 C-65.90743727 384.89387584 -65.90743727 384.89387584 -70.80053711 377.89990234 C-74.56838751 371.2374593 -74.73317442 364.89940682 -72.76489258 357.58251953 C-72.58160054 356.89287172 -72.39830851 356.20322392 -72.20946217 355.49267769 C-70.25485051 348.25022302 -68.07022278 341.07369579 -65.84720421 333.90990829 C-65.11521901 331.54780833 -64.39015894 329.18367804 -63.66694641 326.81887817 C-61.61457852 320.10949042 -59.5560893 313.40205213 -57.47924805 306.70019531 C-56.19919548 302.56781907 -54.93175961 298.4317523 -53.67237282 294.2930336 C-53.19347101 292.72793045 -52.70984618 291.16426406 -52.2213192 289.60213852 C-51.54146877 287.42684941 -50.87779636 285.24721759 -50.2175293 283.06591797 C-49.83654587 281.83066376 -49.45556244 280.59540955 -49.06303406 279.32272339 C-47.99381197 274.06200178 -49.17982913 269.99391392 -51.125 265.09716797 C-51.48207031 264.18957733 -51.83914062 263.28198669 -52.20703125 262.34689331 C-52.59246094 261.38421539 -52.97789062 260.42153748 -53.375 259.4296875 C-53.77074219 258.42664581 -54.16648438 257.42360413 -54.57421875 256.39016724 C-55.83560525 253.19538634 -57.10483148 250.0037984 -58.375 246.8125 C-59.64398126 243.61360975 -60.91126261 240.41406642 -62.17578125 237.21340942 C-62.96197357 235.22454052 -63.75093913 233.23676514 -64.54296875 231.25021362 C-64.90003906 230.34892731 -65.25710937 229.44764099 -65.625 228.51904297 C-65.93953125 227.72883759 -66.2540625 226.9386322 -66.578125 226.1244812 C-67.32423356 224.0768258 -67.89102403 222.06067988 -68.375 219.9375 C-70.685 219.9375 -72.995 219.9375 -75.375 219.9375 C-75.60751465 220.72398926 -75.8400293 221.51047852 -76.07958984 222.32080078 C-77.75383347 226.99517793 -79.90573942 231.35614548 -82.1015625 235.8046875 C-82.5680722 236.75707306 -83.03458191 237.70945862 -83.51522827 238.69070435 C-85.00662657 241.73304754 -86.50329865 244.77276279 -88 247.8125 C-88.98340538 249.81754531 -89.96648142 251.82275218 -90.94921875 253.828125 C-93.31414796 258.65098013 -95.68948724 263.46861607 -98.06848145 268.2845459 C-99.29626118 270.77761672 -100.51425692 273.27521056 -101.72949219 275.77441406 C-102.43146848 277.2064646 -103.13360509 278.63843658 -103.8359375 280.0703125 C-104.1402066 280.70258759 -104.44447571 281.33486267 -104.75796509 281.98629761 C-107.71395292 287.97681823 -110.85077824 292.43910021 -116.984375 295.19921875 C-123.92283934 297.3419798 -130.40652395 296.7748705 -136.9375 293.6875 C-139.12104353 292.47662586 -141.2494668 291.2423573 -143.375 289.9375 C-144.04885742 289.52419434 -144.72271484 289.11088867 -145.41699219 288.68505859 C-150.21651242 285.71651379 -154.97136073 282.67994777 -159.72216797 279.63427734 C-164.42412325 276.6268607 -169.14462087 273.64996378 -173.875 270.6875 C-175.22839478 269.82789673 -175.22839478 269.82789673 -176.60913086 268.95092773 C-177.86995483 268.16310913 -177.86995483 268.16310913 -179.15625 267.359375 C-179.89939453 266.89112305 -180.64253906 266.42287109 -181.40820312 265.94042969 C-183.45247201 264.71036153 -183.45247201 264.71036153 -186.375 264.9375 C-187.3959375 266.5153125 -187.3959375 266.5153125 -188.4375 268.125 C-191.70719237 272.94143308 -195.91992169 275.12975872 -201.375 276.9375 C-207.87547534 278.17712553 -213.37197091 276.89938393 -219.1015625 273.6640625 C-224.25305661 269.75175941 -226.8969266 265.05244701 -227.875 258.6796875 C-228.31151663 246.92102077 -222.26889264 238.83373673 -216.125 229.25 C-215.49464844 228.23099609 -214.86429688 227.21199219 -214.21484375 226.16210938 C-209.65066564 219.05556322 -205.45348059 214.63032686 -197.375 211.9375 C-182.77624206 209.41354971 -168.49614437 221.82410468 -156.9140625 229.30419922 C-152.52393879 232.12823072 -148.10402935 234.90502398 -143.6875 237.6875 C-142.07929763 238.70292 -140.47121232 239.71852545 -138.86328125 240.734375 C-138.18821533 241.16073242 -137.51314941 241.58708984 -136.81762695 242.02636719 C-136.34156006 242.32704102 -135.86549316 242.62771484 -135.375 242.9375 C-132.48040173 237.61294614 -129.65117263 232.25946658 -126.88183594 226.86865234 C-125.86391589 224.88855706 -124.83831751 222.91239303 -123.80566406 220.93994141 C-122.22675371 217.89490001 -120.70267843 214.82717486 -119.1875 211.75 C-118.69403076 210.81478516 -118.20056152 209.87957031 -117.69213867 208.91601562 C-114.01687963 201.25807145 -114.08324787 194.70267687 -115.07363892 186.45199585 C-115.41311558 183.61947129 -115.71064474 180.78393016 -116.0065918 177.9465332 C-116.60128845 172.34655864 -117.24341869 166.75319181 -117.90405273 161.16064453 C-118.31648425 157.6536208 -118.71610223 154.14527808 -119.11523438 150.63671875 C-119.37683223 148.39834715 -119.63917438 146.16006238 -119.90234375 143.921875 C-120.0201268 142.87715027 -120.13790985 141.83242554 -120.25926208 140.75604248 C-120.37600784 139.78692932 -120.4927536 138.81781616 -120.61303711 137.81933594 C-120.761735 136.54603424 -120.761735 136.54603424 -120.91343689 135.24700928 C-121.41970922 132.71378986 -121.87298832 131.05113676 -123.375 128.9375 C-125.85833008 127.68043141 -125.85833008 127.68043141 -128.89111328 126.8503418 C-130.04636505 126.49284348 -131.20161682 126.13534515 -132.39187622 125.76701355 C-134.27457718 125.20751762 -134.27457718 125.20751762 -136.1953125 124.63671875 C-137.49667888 124.23514453 -138.79744343 123.83161526 -140.09762573 123.42622375 C-145.61450952 121.71058178 -151.14341667 120.03495593 -156.67382812 118.36352539 C-160.05973737 117.33869983 -163.43892027 116.29368624 -166.8151207 115.23734474 C-168.71334417 114.65046711 -170.61886085 114.08734572 -172.52444458 113.52482605 C-179.61808492 111.30789233 -185.65218372 108.90895315 -190.375 102.9375 C-195.37641884 93.02062189 -191.83433495 80.4456067 -189.63671875 70.16796875 C-189.3514998 68.79343358 -189.06724322 67.41869841 -188.78388977 66.04377747 C-188.19242737 63.18736062 -187.59248273 60.33291496 -186.9855957 57.47973633 C-186.21247131 53.84370268 -185.45654141 50.20436189 -184.70636272 46.56353283 C-184.12215217 43.73384471 -183.5311888 40.90560151 -182.93799782 38.07778358 C-182.65703436 36.73662316 -182.37757795 35.395146 -182.09973717 34.05333519 C-178.04880826 14.56698581 -178.04880826 14.56698581 -172.375 10 C-171.694375 9.43410156 -171.01375 8.86820313 -170.3125 8.28515625 C-165.34706225 4.83137394 -159.15808384 5.29249192 -153.375 5.9375 C-147.6731573 8.06765702 -144.27709899 11.59763786 -141.375 16.9375 C-138.62249871 25.19500388 -140.74190148 34.24538839 -142.5625 42.51171875 C-142.78446045 43.56156448 -143.0064209 44.61141022 -143.23510742 45.69306946 C-143.93801184 49.00603155 -144.65621455 52.31545129 -145.375 55.625 C-145.85779122 57.88715226 -146.33957164 60.1495205 -146.8203125 62.41210938 C-147.99354288 67.92312194 -149.1793101 73.43131919 -150.375 78.9375 C-149.80081329 79.05341492 -149.22662659 79.16932983 -148.63504028 79.28875732 C-143.84619642 80.29691537 -139.41941807 81.55625924 -134.8671875 83.390625 C-114.20961742 91.14217921 -96.51430437 91.65450276 -74.69091797 89.34570312 C-70.70200968 88.93534578 -66.73108567 88.81882638 -62.72265625 88.69921875 C-54.24557461 88.16029873 -47.12615672 85.29450432 -39.375 82.0625 C-38.00990148 81.51236627 -36.64401603 80.96418113 -35.27734375 80.41796875 C-28.84846492 77.84090508 -28.84846492 77.84090508 -22.49267578 75.09075928 C-19.60036201 73.79738279 -17.58275698 72.9375 -14.375 72.9375 C-14.55039307 72.34805099 -14.72578613 71.75860199 -14.90649414 71.15129089 C-16.74109097 64.97494117 -18.5546245 58.79267827 -20.35644531 52.60668945 C-21.03017636 50.30369845 -21.70913232 48.0022289 -22.39355469 45.70239258 C-23.38057308 42.38235621 -24.34821459 39.05716905 -25.3125 35.73046875 C-25.61873291 34.7154277 -25.92496582 33.70038666 -26.24047852 32.65458679 C-28.52797382 24.65513387 -30.16624705 16.36985795 -26.6875 8.5 C-20.94753604 -1.41817094 -10.40542031 -3.27578047 0 0 Z " fill="#020101" transform="translate(235.375,53.0625)"/>
<path d="M0 0 C5.859375 20.5078125 5.859375 20.5078125 6.91992188 24.24316406 C7.65004334 26.7827457 8.39269683 29.3140928 9.15820312 31.84277344 C9.52365234 33.06770508 9.88910156 34.29263672 10.265625 35.5546875 C10.59852539 36.65022949 10.93142578 37.74577148 11.27441406 38.87451172 C12.31034222 43.33681059 12.80826912 46.41169562 10.68603516 50.58203125 C6.64846039 54.21665591 2.05985143 55.77294694 -2.9765625 57.6875 C-4.05698822 58.11248779 -5.13741394 58.53747559 -6.25057983 58.9753418 C-9.7034435 60.3308826 -13.16364715 61.66630305 -16.625 63 C-20.06345986 64.33715201 -23.50018777 65.67854727 -26.93515015 67.0246582 C-29.06987776 67.85992014 -31.20682661 68.68953572 -33.34634399 69.51245117 C-44.66836723 73.45796718 -44.66836723 73.45796718 -54.12890625 80.3515625 C-55.26235962 83.79766737 -55.23053633 86.81487652 -54.9375 90.375 C-54.88730713 91.12378418 -54.83711426 91.87256836 -54.78540039 92.64404297 C-54.05226722 102.19438671 -52.6972366 111.70097855 -51.37280273 121.18505859 C-50.50456137 127.51451031 -49.74794685 133.60923314 -50 140 C-70.6865309 145.00572858 -89.70269796 147.36391289 -111 147 C-111.14099121 145.84177734 -111.28198242 144.68355469 -111.42724609 143.49023438 C-111.96002968 139.11406376 -112.49315218 134.73793448 -113.02636719 130.36181641 C-113.25529803 128.48259556 -113.48414196 126.60336412 -113.71289062 124.72412109 C-113.82310547 123.81871582 -113.93332031 122.91331055 -114.046875 121.98046875 C-114.15646545 121.07876953 -114.26605591 120.17707031 -114.37896729 119.24804688 C-114.60031204 117.43659302 -114.82374229 115.62539278 -115.04925537 113.81445312 C-115.56564466 109.65680382 -116.05969442 105.50162238 -116.46972656 101.33203125 C-116.54550934 100.61204956 -116.62129211 99.89206787 -116.69937134 99.15026855 C-116.89839278 97.24384963 -117.08194034 95.33583254 -117.26416016 93.42773438 C-118.17594602 89.18039743 -119.581868 86.60964326 -122 83 C-129.18157393 78.3703419 -137.85260054 76.20820185 -145.9375 73.5625 C-147.42692412 73.06991817 -148.91626305 72.5770787 -150.40551758 72.08398438 C-159.16893533 69.19394603 -167.9510184 66.42762438 -176.85546875 64 C-180.96543122 62.69298088 -184.69795978 61.21523753 -187.875 58.25 C-190.69361468 52.61277064 -188.5109982 45.67217308 -187.25 39.78515625 C-187.07243164 38.92941513 -186.89486328 38.07367401 -186.71191406 37.19200134 C-186.14777662 34.48076138 -185.57404938 31.77165672 -185 29.0625 C-184.61394623 27.21562785 -184.22852299 25.36862378 -183.84375 23.52148438 C-182.90312129 19.01276395 -181.9538915 14.50593229 -181 10 C-178.56212615 10.1409349 -176.12482147 10.28754542 -173.6875 10.4375 C-172.65206055 10.49647461 -172.65206055 10.49647461 -171.59570312 10.55664062 C-168.52838465 10.74927415 -165.93031848 11.02322717 -163 12 C-163.35313018 18.07627447 -164.10875553 23.83216284 -165.5625 29.75 C-167.67376917 37.82664384 -167.67376917 37.82664384 -165.6875 45.6875 C-161.57807365 49.22351802 -157.13359479 50.39440916 -152 52 C-150.23407374 52.5654663 -148.46847677 53.13196148 -146.703125 53.69921875 C-142.00524456 55.20447254 -137.302563 56.69349792 -132.59301758 58.16186523 C-130.92858148 58.69985687 -129.27324073 59.26737489 -127.6315918 59.87133789 C-122.29540255 61.82317909 -117.72941264 62.43788181 -112.0625 62.3125 C-111.19713623 62.3026709 -110.33177246 62.2928418 -109.44018555 62.28271484 C-100.39032456 62.11751223 -91.34905285 61.62389264 -82.3125 61.125 C-81.57838898 61.08597565 -80.84427795 61.04695129 -80.08792114 61.00674438 C-77.94996451 60.8904111 -75.81291395 60.76333607 -73.67578125 60.6328125 C-71.8182019 60.52283936 -71.8182019 60.52283936 -69.9230957 60.41064453 C-61.62840018 59.54240893 -54.17668425 57.58017512 -46.44921875 54.48046875 C-45.15646782 53.96979607 -45.15646782 53.96979607 -43.83760071 53.44880676 C-42.03346818 52.73285161 -40.23108348 52.01247737 -38.43041992 51.2878418 C-35.68296968 50.18568263 -32.92707165 49.10692476 -30.16992188 48.02929688 C-28.40829634 47.3269183 -26.64720873 46.62318873 -24.88671875 45.91796875 C-24.06894455 45.60006882 -23.25117035 45.28216888 -22.40861511 44.95463562 C-17.66403899 43.01833353 -14.30035467 41.084194 -11 37 C-9.88329032 30.52965271 -12.51313576 24.34867595 -14.5 18.25 C-15.15989636 16.19387504 -15.81631336 14.13662919 -16.46875 12.078125 C-16.76201172 11.17481445 -17.05527344 10.27150391 -17.35742188 9.34082031 C-18 7 -18 7 -18 4 C-15.75194998 3.32678716 -13.50147776 2.66165877 -11.25 2 C-9.99703125 1.62875 -8.7440625 1.2575 -7.453125 0.875 C-4 0 -4 0 0 0 Z " fill="#F9637C" transform="translate(242,92)"/>
<path d="M0 0 C1.06527924 0.42969086 2.13055847 0.85938171 3.2281189 1.30209351 C6.62362398 2.67548683 10.01090893 4.06800274 13.3984375 5.4609375 C15.65184225 6.37493531 17.90574445 7.2877077 20.16015625 8.19921875 C25.4619085 10.34730619 30.75242917 12.5213231 36.03787231 14.709198 C38.45694907 15.70558052 40.88174772 16.6854717 43.31030273 17.65844727 C44.55993611 18.16893687 45.80938742 18.67987254 47.05859375 19.19140625 C48.0731665 19.60028076 49.08773926 20.00915527 50.13305664 20.43041992 C55.16598256 23.10952806 58.35306853 27.3843337 61.7734375 31.8359375 C63.33413982 33.71243411 64.89664909 35.58742929 66.4609375 37.4609375 C70.01035421 41.83855144 73.44864835 46.2855398 76.7734375 50.8359375 C74.53529997 52.39784631 72.28574702 53.93477632 70.0234375 55.4609375 C69.07210937 56.12996094 69.07210937 56.12996094 68.1015625 56.8125 C66.2265625 58.0625 66.2265625 58.0625 62.7734375 59.8359375 C59.15849341 59.0778643 57.70305935 56.65376871 55.5859375 53.7734375 C52.32004329 49.92459873 49.93904105 48.83070612 44.984375 48.28515625 C41.57039954 49.13563424 40.08509566 51.24228323 37.7734375 53.8359375 C36.13464363 56.77973286 36.13464363 56.77973286 34.86328125 60.05078125 C34.61402893 60.65116211 34.36477661 61.25154297 34.10797119 61.87011719 C33.29674679 63.83312334 32.50370027 65.80291187 31.7109375 67.7734375 C31.14916343 69.14370865 30.58640442 70.51357638 30.02270508 71.88305664 C28.25423494 76.19319245 26.51237976 80.51382223 24.7734375 84.8359375 C24.18303335 86.29951574 23.59253884 87.76305752 23.00195312 89.2265625 C19.5646288 97.75202784 16.15634545 106.28872122 12.7734375 114.8359375 C1.56005362 113.75772751 -8.65371636 110.57178725 -18.9765625 106.1484375 C-20.00845703 105.71289551 -21.04035156 105.27735352 -22.10351562 104.82861328 C-30.65872661 101.17521344 -38.99681915 97.16865532 -47.2265625 92.8359375 C-46.56488123 88.57360734 -45.12130571 84.98938787 -43.3828125 81.05078125 C-43.09745636 80.40117935 -42.81210022 79.75157745 -42.51809692 79.08229065 C-41.90766258 77.69481132 -41.29489479 76.30835666 -40.67999268 74.92285156 C-39.72040712 72.7595608 -38.76839556 70.59306686 -37.81787109 68.42578125 C-35.0403391 62.10649059 -32.23552322 55.80503074 -29.296875 49.55859375 C-28.87728516 48.65955322 -28.45769531 47.7605127 -28.02539062 46.83422852 C-27.26947192 45.22538574 -26.50087225 43.6224096 -25.71679688 42.02709961 C-23.37518272 37.03763419 -22.77617244 33.35471698 -23.2265625 27.8359375 C-24.74383405 25.0691482 -26.18792809 24.84991165 -29.1640625 23.7734375 C-34.19095344 23.17064116 -38.31236926 26.12485776 -42.5546875 28.48828125 C-45.2265625 29.8359375 -45.2265625 29.8359375 -48.2265625 29.8359375 C-50.2065625 24.2259375 -52.1865625 18.6159375 -54.2265625 12.8359375 C-50.68951756 11.05583925 -47.15184452 9.27707592 -43.61254883 7.50146484 C-41.82756926 6.60527079 -40.04365524 5.70695543 -38.25976562 4.80859375 C-34.92285105 3.13543658 -31.57618133 1.48347835 -28.2265625 -0.1640625 C-27.37690918 -0.59783203 -26.52725586 -1.03160156 -25.65185547 -1.47851562 C-24.52674561 -2.02668945 -24.52674561 -2.02668945 -23.37890625 -2.5859375 C-22.44872681 -3.0514502 -22.44872681 -3.0514502 -21.49975586 -3.52636719 C-13.5517462 -5.75600968 -7.30460852 -3.0323838 0 0 Z " fill="#6FD4F7" transform="translate(396.2265625,186.1640625)"/>
<path d="M0 0 C4.49394112 0.78747963 8.06273006 2.43770045 12.0625 4.5625 C26.93851469 12.21950322 43.36681074 19.47312907 60 22 C59.27787286 26.17339003 58.05398424 30.05237341 56.69921875 34.0625 C56.46650269 34.75458557 56.23378662 35.44667114 55.99401855 36.159729 C55.49034286 37.65752764 54.98548913 39.15493054 54.47958374 40.65197754 C53.67810626 43.02784643 52.88262959 45.40564141 52.08911133 47.78417969 C49.81893069 54.58875979 47.54760942 61.39280872 45.2421875 68.18554688 C43.81373044 72.3946882 42.40105689 76.60884008 40.9984436 80.82666016 C40.46127928 82.43186636 39.91819737 84.03510538 39.36898804 85.63623047 C38.59913252 87.88287655 37.85021553 90.13555213 37.10546875 92.390625 C36.87589478 93.04444153 36.6463208 93.69825806 36.40979004 94.37188721 C33.66377349 102.8708495 36.40560895 109.85909253 39.45703125 117.80078125 C39.97338387 119.17631416 39.97338387 119.17631416 40.50016785 120.57963562 C41.59609294 123.49375608 42.70396068 126.40315775 43.8125 129.3125 C44.5457398 131.25424862 45.27816909 133.19630352 46.00976562 135.13867188 C47.40054003 138.82813493 48.79226797 142.5172328 50.18603516 146.20556641 C50.49849182 147.03252014 50.81094849 147.85947388 51.13287354 148.71148682 C51.88550294 150.69782028 52.64412056 152.68188279 53.40380859 154.66552734 C53.76941895 155.63570801 54.1350293 156.60588867 54.51171875 157.60546875 C54.80908936 158.3843042 55.10645996 159.16313965 55.4128418 159.96557617 C56 162 56 162 56 166 C55.34773438 166.19335938 54.69546875 166.38671875 54.0234375 166.5859375 C53.14945312 166.84632813 52.27546875 167.10671875 51.375 167.375 C50.46105469 167.64699219 49.54710937 167.91898438 48.60546875 168.19921875 C46.61628481 168.81058713 44.64644156 169.48523793 42.6875 170.1875 C39.953535 171.01404756 37.8328963 171.06168786 35 171 C34.61535835 169.95216591 34.61535835 169.95216591 34.22294617 168.88316345 C31.79759559 162.27710178 29.3704289 155.67171088 26.94125652 149.06705379 C25.6926748 145.6721003 24.44477918 142.276898 23.19848633 138.88110352 C21.99412247 135.59963354 20.78791096 132.31884808 19.58045387 129.03851509 C18.89959436 127.18735078 18.22061481 125.33549537 17.54167175 123.48362732 C17.12146255 122.34297318 16.70125336 121.20231903 16.26831055 120.02709961 C15.87727142 118.96449921 15.4862323 117.9018988 15.08334351 116.80709839 C14.20596943 114.53369632 13.25144821 112.36979973 12.19458008 110.17797852 C9.03614122 101.77548544 12.07533758 94.7335723 14.88911438 86.6072731 C15.60678003 84.5326453 16.30840846 82.45317758 17.00622559 80.37179565 C18.74178249 75.20467675 20.5008153 70.04564471 22.26519775 64.88830566 C23.75856149 60.5223531 25.23975714 56.15266262 26.70417786 51.77691269 C27.390427 49.74222672 28.09395462 47.71408432 28.79821777 45.68557739 C31.10004026 38.9073879 33.2956851 32.22322643 32 25 C30.11484777 22.42362529 28.80665143 21.40332572 26 20 C22.62642666 19.49929679 22.62642666 19.49929679 19 20 C14.36992149 23.86603915 11.39145905 28.68982662 8.1875 33.75 C7.63562012 34.61036865 7.08374023 35.4707373 6.51513672 36.35717773 C5.31474958 38.23030749 4.11727553 40.10530654 2.92236328 41.98193359 C0.90133401 45.15490334 -1.1285389 48.32208157 -3.16015625 51.48828125 C-8.17787117 59.29254152 -8.17787117 59.29254152 -13.13183594 67.13720703 C-15 70 -15 70 -17.03222656 72.59326172 C-23.20229776 80.81330885 -22.82949714 88.24697128 -22 98 C-21.88325928 99.41895569 -21.88325928 99.41895569 -21.76416016 100.86657715 C-21.12050863 108.38178228 -20.32094029 115.87744599 -19.5 123.375 C-19.14132764 126.72485538 -18.78513097 130.07496319 -18.43005371 133.42520142 C-18.21012457 135.49219606 -17.98765416 137.5589223 -17.7623291 139.62533569 C-17.66222534 140.55125519 -17.56212158 141.47717468 -17.45898438 142.43115234 C-17.37015991 143.24369476 -17.28133545 144.05623718 -17.18981934 144.8934021 C-17 147 -17 147 -17 150 C-24.59 150 -32.18 150 -40 150 C-40.78922815 142.27179123 -41.57281048 134.54305761 -42.34690857 126.81332111 C-42.70670476 123.22276625 -43.06881367 119.63247837 -43.43652344 116.04272461 C-43.79237174 112.56787738 -44.14173313 109.09242968 -44.48690796 105.61650658 C-44.68198869 103.66832028 -44.88350376 101.72078164 -45.08520508 99.77326965 C-47.4190107 76.06532244 -47.4190107 76.06532244 -40.9375 67.1875 C-39.82756549 65.5533462 -38.71958567 63.91786352 -37.61328125 62.28125 C-37.02369629 61.42789063 -36.43411133 60.57453125 -35.82666016 59.6953125 C-32.61222601 54.95228217 -29.63553103 50.06143173 -26.625 45.1875 C-22.83042017 39.08562372 -19.01412264 33.00085763 -15.109375 26.96875 C-14.16843994 25.51045776 -14.16843994 25.51045776 -13.20849609 24.02270508 C-12.03024566 22.20073141 -10.84615052 20.38251693 -9.65478516 18.5690918 C-5.8108981 12.61687699 -2.76844363 6.52006557 0 0 Z " fill="#595B5E" transform="translate(344,288)"/>
<path d="M0 0 C0.10852295 0.9480249 0.2170459 1.8960498 0.32885742 2.87280273 C2.16164751 16.43706561 7.12676494 28.47414522 12.3125 41.0625 C13.16497956 43.16147319 14.01589952 45.26108049 14.86523438 47.36132812 C16.10397292 50.42317992 17.34290053 53.48494134 18.58505249 56.54541016 C20.95996289 62.40163109 23.32293842 68.26115758 25.58984375 74.16015625 C26.05640381 75.36679932 26.52296387 76.57344238 27.00366211 77.81665039 C29.9738184 87.30644893 25.75562108 96.35669208 22.61328125 105.3125 C21.07625295 109.71180039 19.72542152 114.14727445 18.4375 118.625 C11.96420334 140.98517051 11.96420334 140.98517051 8 151 C1.2142064 150.45136137 -5.35009036 149.45732062 -12 148 C-13.3762866 143.44105063 -12.50660414 140.57889849 -11 136.125 C-10.53118881 134.70357391 -10.06382967 133.28166836 -9.59765625 131.859375 C-9.21311279 130.70018555 -9.21311279 130.70018555 -8.82080078 129.51757812 C-6.34617252 121.92734415 -4.09815398 114.26250993 -1.79589844 106.61865234 C-1.10043083 104.33043592 -0.38699801 102.04917304 0.3359375 99.76953125 C0.69945312 98.58746094 1.06296875 97.40539062 1.4375 96.1875 C1.74558594 95.21167969 2.05367187 94.23585938 2.37109375 93.23046875 C4.1444526 84.1213522 2.43503454 77.08467955 -0.98046875 68.5859375 C-1.59526848 67.00421249 -1.59526848 67.00421249 -2.2224884 65.39053345 C-3.08801045 63.17388678 -3.96166564 60.96040033 -4.84301758 58.75 C-6.18357193 55.38486047 -7.49704368 52.01010358 -8.80664062 48.6328125 C-9.65467539 46.47073589 -10.50423427 44.30925634 -11.35546875 42.1484375 C-11.94016182 40.64970596 -11.94016182 40.64970596 -12.53666687 39.12069702 C-16.09307915 29.23155807 -16.09307915 29.23155807 -22.99211121 21.80673218 C-25.53328367 20.78573659 -27.63984246 20.66330753 -30.375 20.625 C-31.29023438 20.59664063 -32.20546875 20.56828125 -33.1484375 20.5390625 C-36.90576918 21.146412 -39.38192665 22.28934253 -42 25 C-44.22185326 28.45265307 -45.94577522 32.09925985 -47.6875 35.8125 C-48.20296387 36.87766846 -48.71842773 37.94283691 -49.24951172 39.0402832 C-50.84838025 42.35306258 -52.4248288 45.67590007 -54 49 C-54.95551795 50.98770734 -55.9124913 52.97471587 -56.87109375 54.9609375 C-60.54782052 62.60040183 -64.21674162 70.23833286 -67.69921875 77.96875 C-68.35833252 79.40988159 -68.35833252 79.40988159 -69.03076172 80.88012695 C-69.86058613 82.6976795 -70.67695254 84.52146215 -71.47705078 86.35229492 C-73.80405243 91.41479852 -75.70255732 94.61121529 -81 97 C-87.20722554 98.3039749 -91.02983478 95.56267463 -96.0859375 92.32446289 C-97.08882812 91.66051514 -98.09171875 90.99656738 -99.125 90.3125 C-101.25217644 88.9420442 -103.37978996 87.57226662 -105.5078125 86.203125 C-106.58192383 85.50509766 -107.65603516 84.80707031 -108.76269531 84.08789062 C-113.79745231 80.84073815 -118.89760208 77.70185889 -124 74.5625 C-125.7501951 73.48078435 -127.5002147 72.39878467 -129.25 71.31640625 C-130.49995045 70.54419063 -131.74992943 69.77202117 -133 69 C-132.20813407 64.35717023 -130.42466289 60.78030978 -128.0625 56.75 C-127.70220703 56.11320312 -127.34191406 55.47640625 -126.97070312 54.8203125 C-124.26182685 50.13091343 -124.26182685 50.13091343 -122 49 C-119.75683594 50.1081543 -119.75683594 50.1081543 -116.984375 51.82421875 C-115.98019531 52.44103516 -114.97601563 53.05785156 -113.94140625 53.69335938 C-112.88824219 54.35142578 -111.83507812 55.00949219 -110.75 55.6875 C-109.71230469 56.32623047 -108.67460938 56.96496094 -107.60546875 57.62304688 C-103.50651651 60.1541368 -99.42234257 62.67629194 -95.4765625 65.44140625 C-92.45885065 67.3405656 -90.50106811 67.33343506 -87 67 C-86.63636353 65.78944946 -86.63636353 65.78944946 -86.26538086 64.55444336 C-84.72945714 60.24004755 -82.78260938 56.22943248 -80.75390625 52.12890625 C-80.34212631 51.2883519 -79.93034637 50.44779755 -79.50608826 49.58177185 C-78.19510908 46.90692129 -76.87913421 44.23457093 -75.5625 41.5625 C-74.25014918 38.89365937 -72.93891447 36.2242829 -71.62962341 33.55393982 C-70.81683803 31.89678658 -70.0022122 30.2405343 -69.18544006 28.58534241 C-64.62480878 19.93437846 -64.62480878 19.93437846 -62.3125 10.5625 C-62.209375 9.386875 -62.10625 8.21125 -62 7 C-61.2378418 6.96559814 -60.47568359 6.93119629 -59.69042969 6.89575195 C-41.61292079 6.02482327 -24.30815122 4.06257379 -6.54833984 0.42724609 C-4 0 -4 0 0 0 Z " fill="#508ED8" transform="translate(194,242)"/>
<path d="M0 0 C2.45455474 3.68183211 2.26406747 5.52062094 2.29052734 9.91479492 C2.29724457 10.61439331 2.30396179 11.3139917 2.31088257 12.03479004 C2.32989432 14.35008842 2.33378902 16.66509713 2.3359375 18.98046875 C2.34236576 20.59369526 2.34909415 22.20692059 2.35610962 23.82014465 C2.36809211 27.20540059 2.3717897 30.59055443 2.37060547 33.97583008 C2.3704028 38.2989363 2.39764586 42.62138127 2.43214989 46.94433117 C2.45447332 50.27908793 2.45844127 53.61368731 2.45738602 56.94851112 C2.45973606 58.5412148 2.46852585 60.13392322 2.48405075 61.72655296 C2.56639805 71.05125121 2.5945149 78.43188552 -3.640625 85.98828125 C-10.11767868 91.31770163 -16.09414519 93.58365539 -24.54296875 93.28515625 C-31.20372398 92.51212742 -35.66261187 90.20486575 -40 85 C-40.598125 84.29875 -41.19625 83.5975 -41.8125 82.875 C-44.09444984 77.35027933 -43.73894518 71.40157185 -42 65.75 C-38.14630659 60.45117156 -33.37568179 55.89621571 -27 54 C-23.3359375 53.76953125 -23.3359375 53.76953125 -19.375 53.8125 C-18.06273437 53.81894531 -16.75046875 53.82539062 -15.3984375 53.83203125 C-12 54 -12 54 -9 55 C-9 48.73 -9 42.46 -9 36 C-11.22484131 36.31807617 -11.22484131 36.31807617 -13.49462891 36.64257812 C-19.0067315 37.42949627 -24.51960016 38.21092953 -30.03271484 38.99072266 C-32.41704154 39.32874804 -34.80115896 39.66825316 -37.18505859 40.00927734 C-40.61501759 40.49967999 -44.04569825 40.98472636 -47.4765625 41.46875 C-48.53928375 41.62186646 -49.602005 41.77498291 -50.69692993 41.93273926 C-55.50049187 42.60554252 -60.13457709 43.20424564 -65 43 C-64.97905273 44.29623291 -64.95810547 45.59246582 -64.93652344 46.92797852 C-64.86389109 51.75664132 -64.81811569 56.58525621 -64.78027344 61.41430664 C-64.76021087 63.50065239 -64.7329541 65.58694227 -64.69824219 67.6730957 C-64.64948841 70.67933978 -64.62697733 73.68483769 -64.609375 76.69140625 C-64.58872986 77.61772354 -64.56808472 78.54404083 -64.54681396 79.49842834 C-64.54473483 85.55700022 -65.47319183 89.03677393 -69 94 C-74.84075057 99.71095611 -79.89701288 102.14238213 -87.9375 102.375 C-94.01675802 102.18526036 -99.11832287 101.60508758 -103.75 97.41796875 C-107.63684596 93.12935746 -109.7720121 89.46226936 -110.3125 83.625 C-109.77607914 77.40251803 -107.34044111 72.46100892 -103 68 C-97.35225781 64.08088918 -92.72485759 62.85817879 -85.9375 62.875 C-84.89464844 62.87242188 -83.85179687 62.86984375 -82.77734375 62.8671875 C-80 63 -80 63 -77 64 C-76.99413376 63.36995056 -76.98826752 62.73990112 -76.98222351 62.09075928 C-76.91832139 55.53693444 -76.8339098 48.9836021 -76.73754883 42.43017578 C-76.70428123 39.98395274 -76.67625509 37.5376526 -76.65356445 35.09130859 C-76.62005292 31.57616295 -76.56773724 28.06172505 -76.51171875 24.546875 C-76.50213387 22.9044986 -76.50213387 22.9044986 -76.49235535 21.22894287 C-76.47256119 20.20818665 -76.45276703 19.18743042 -76.43237305 18.13574219 C-76.42126999 17.23861511 -76.41016693 16.34148804 -76.39872742 15.41717529 C-75.92089394 12.52044128 -74.98738286 11.13282826 -73 9 C-70.84399414 8.25805664 -70.84399414 8.25805664 -68.28515625 7.91015625 C-67.30619385 7.76803711 -66.32723145 7.62591797 -65.31860352 7.47949219 C-64.24408936 7.34188477 -63.1695752 7.20427734 -62.0625 7.0625 C-60.37821899 6.82708496 -60.37821899 6.82708496 -58.65991211 6.58691406 C-56.1609629 6.23921663 -53.66096622 5.89899259 -51.16015625 5.56494141 C-47.45461673 5.06742607 -43.75521573 4.53273192 -40.0561676 3.98924255 C-36.85096454 3.5184304 -33.64469004 3.05520118 -30.4382019 2.5932312 C-28.87000181 2.36666439 -27.30206205 2.13828728 -25.73440552 1.9079895 C-5.57764728 -1.03675259 -5.57764728 -1.03675259 0 0 Z " fill="#010100" transform="translate(383,0)"/>
<path d="M0 0 C7.44059154 5.7628111 12.57603528 13.60849609 14.390625 22.8515625 C15.73692778 34.96528239 14.4220739 45.54074579 7.203125 55.6640625 C0.90170869 63.20687131 -7.91845938 68.23878862 -17.609375 69.8515625 C-30.62158945 70.80861363 -39.74737505 67.60064996 -50.109375 60.0234375 C-52.76373452 57.71746267 -54.42796121 55.50832554 -56.296875 52.5390625 C-57.16892578 51.18361328 -57.16892578 51.18361328 -58.05859375 49.80078125 C-62.85271484 40.68349808 -62.91659388 29.62758948 -60.9921875 19.65234375 C-57.79050742 9.7214688 -51.33724728 1.96713249 -42.171875 -2.96484375 C-27.77839938 -9.61304972 -13.36554332 -8.53209212 0 0 Z " fill="#F6CEB2" transform="translate(455.609375,106.1484375)"/>
<path d="M0 0 C7.44059154 5.7628111 12.57603528 13.60849609 14.390625 22.8515625 C15.73692778 34.96528239 14.4220739 45.54074579 7.203125 55.6640625 C0.90170869 63.20687131 -7.91845938 68.23878862 -17.609375 69.8515625 C-30.62158945 70.80861363 -39.74737505 67.60064996 -50.109375 60.0234375 C-52.76373452 57.71746267 -54.42796121 55.50832554 -56.296875 52.5390625 C-57.16892578 51.18361328 -57.16892578 51.18361328 -58.05859375 49.80078125 C-62.85271484 40.68349808 -62.91659388 29.62758948 -60.9921875 19.65234375 C-57.79050742 9.7214688 -51.33724728 1.96713249 -42.171875 -2.96484375 C-27.77839938 -9.61304972 -13.36554332 -8.53209212 0 0 Z " fill="#F6CEB2" transform="translate(175.609375,64.1484375)"/>
<path d="M0 0 C7.44059154 5.7628111 12.57603528 13.60849609 14.390625 22.8515625 C15.73692778 34.96528239 14.4220739 45.54074579 7.203125 55.6640625 C0.90170869 63.20687131 -7.91845938 68.23878862 -17.609375 69.8515625 C-30.62158945 70.80861363 -39.74737505 67.60064996 -50.109375 60.0234375 C-52.76373452 57.71746267 -54.42796121 55.50832554 -56.296875 52.5390625 C-57.16892578 51.18361328 -57.16892578 51.18361328 -58.05859375 49.80078125 C-62.85271484 40.68349808 -62.91659388 29.62758948 -60.9921875 19.65234375 C-57.79050742 9.7214688 -51.33724728 1.96713249 -42.171875 -2.96484375 C-27.77839938 -9.61304972 -13.36554332 -8.53209212 0 0 Z M-39.609375 7.8515625 C-40.640625 8.5115625 -41.671875 9.1715625 -42.734375 9.8515625 C-47.85143965 14.44848596 -51.00960821 21.24841806 -52.125 27.94921875 C-52.42092108 36.13989144 -50.16706935 42.68346801 -45.921875 49.6015625 C-38.5923579 56.73298455 -31.86025282 59.17445116 -21.80737305 59.2409668 C-14.09538893 59.09210696 -9.54673363 56.39727331 -3.796875 51.4140625 C2.55035604 43.97873471 4.9427507 37.69254049 4.7734375 27.95703125 C3.86209083 20.56396389 0.00978864 14.6278516 -5.609375 9.8515625 C-6.41375 9.1296875 -7.218125 8.4078125 -8.046875 7.6640625 C-16.86699662 1.42543989 -30.88571044 1.55462477 -39.609375 7.8515625 Z " fill="#020201" transform="translate(455.609375,106.1484375)"/>
<path d="M0 0 C7.44059154 5.7628111 12.57603528 13.60849609 14.390625 22.8515625 C15.73692778 34.96528239 14.4220739 45.54074579 7.203125 55.6640625 C0.90170869 63.20687131 -7.91845938 68.23878862 -17.609375 69.8515625 C-30.62158945 70.80861363 -39.74737505 67.60064996 -50.109375 60.0234375 C-52.76373452 57.71746267 -54.42796121 55.50832554 -56.296875 52.5390625 C-57.16892578 51.18361328 -57.16892578 51.18361328 -58.05859375 49.80078125 C-62.85271484 40.68349808 -62.91659388 29.62758948 -60.9921875 19.65234375 C-57.79050742 9.7214688 -51.33724728 1.96713249 -42.171875 -2.96484375 C-27.77839938 -9.61304972 -13.36554332 -8.53209212 0 0 Z M-39.609375 7.8515625 C-40.640625 8.5115625 -41.671875 9.1715625 -42.734375 9.8515625 C-47.85143965 14.44848596 -51.00960821 21.24841806 -52.125 27.94921875 C-52.42092108 36.13989144 -50.16706935 42.68346801 -45.921875 49.6015625 C-38.5923579 56.73298455 -31.86025282 59.17445116 -21.80737305 59.2409668 C-14.09538893 59.09210696 -9.54673363 56.39727331 -3.796875 51.4140625 C2.55035604 43.97873471 4.9427507 37.69254049 4.7734375 27.95703125 C3.86209083 20.56396389 0.00978864 14.6278516 -5.609375 9.8515625 C-6.41375 9.1296875 -7.218125 8.4078125 -8.046875 7.6640625 C-16.86699662 1.42543989 -30.88571044 1.55462477 -39.609375 7.8515625 Z " fill="#020201" transform="translate(175.609375,64.1484375)"/>
<path d="M0 0 C2.82608509 2.49531127 5.20435724 5.26655033 7.58984375 8.1796875 C8.33717773 9.07107422 8.33717773 9.07107422 9.09960938 9.98046875 C13.67369997 15.47930764 13.67369997 15.47930764 14.40234375 19.3046875 C13.6375367 24.46713507 10.49022246 27.06457631 6.90234375 30.6796875 C6.25394531 31.35386719 5.60554688 32.02804687 4.9375 32.72265625 C1.85447032 35.87894604 -1.29612867 38.88786106 -4.66015625 41.7421875 C-8.85720765 45.34084741 -12.71029649 49.25426768 -16.59765625 53.1796875 C-21.0241498 57.64947723 -25.43461906 62.03501951 -30.28125 66.0546875 C-32.22312317 67.73594927 -32.22312317 67.73594927 -34.2578125 70.0546875 C-40.74337789 77.17434762 -40.74337789 77.17434762 -45.84765625 78.0546875 C-49.24739895 78.08445758 -50.1455987 77.64935656 -53.16015625 75.7421875 C-55.26924825 72.40846144 -55.68439616 70.57738785 -55.76171875 66.7421875 C-54.73149825 63.54244384 -52.54216585 61.9469618 -50.09765625 59.6796875 C-49.07585135 58.65588689 -48.05910664 57.62701668 -47.046875 56.59375 C-41.79187675 51.28759265 -36.55149185 46.05679472 -30.85546875 41.21875 C-28.41240145 39.07970885 -26.16982904 36.76369835 -23.8984375 34.4453125 C-21.31444747 31.91176913 -18.56569615 29.58601575 -15.796875 27.2578125 C-12.32381245 24.03225556 -11.83949222 21.52786114 -11.63671875 16.91015625 C-12.31513623 13.62730556 -14.15849665 11.36615169 -16.09765625 8.6796875 C-13.85951872 7.11777869 -11.60996577 5.58084868 -9.34765625 4.0546875 C-8.7134375 3.60867187 -8.07921875 3.16265625 -7.42578125 2.703125 C-2.74284446 -0.41883286 -2.74284446 -0.41883286 0 0 Z " fill="#F5CCB1" transform="translate(480.09765625,245.3203125)"/>
<path d="M0 0 C5.06268811 1.63003216 8.05045687 6.89522512 10.6640625 11.2421875 C11.31439453 12.31339844 11.96472656 13.38460937 12.63476562 14.48828125 C13.31216797 15.61878906 13.98957031 16.74929687 14.6875 17.9140625 C16.10323651 20.25475559 17.5239786 22.59239009 18.9453125 24.9296875 C19.29543396 25.50674438 19.64555542 26.08380127 20.00628662 26.67834473 C23.52505064 32.46112289 27.20546788 38.13303286 30.96337891 43.76269531 C34.0625 48.45658 34.0625 48.45658 34.0625 50.6640625 C34.73796875 50.70402344 35.4134375 50.74398437 36.109375 50.78515625 C38.99471793 51.12289148 41.37095273 51.55528045 44.0625 52.6640625 C46.16283489 55.43871544 47.06926998 58.35712323 48.0625 61.6640625 C48.495625 62.5921875 48.92875 63.5203125 49.375 64.4765625 C50.20694677 67.12366586 50.13862019 68.11561422 49.0625 70.6640625 C43.27980179 74.52596992 36.95703773 76.8527759 30.0625 75.6640625 C24.85392318 71.44801381 21.86846197 65.74580981 18.5 60.0390625 C17.25658703 57.96271542 16.01177315 55.88720668 14.765625 53.8125 C14.14494141 52.77706055 13.52425781 51.74162109 12.88476562 50.67480469 C10.23556881 46.29780909 7.49978688 41.97832162 4.75 37.6640625 C-11.66475769 11.84575284 -11.66475769 11.84575284 -10.9375 5.6640625 C-7.80023828 1.15424877 -5.23249871 0.10549393 0 0 Z " fill="#F5CCB1" transform="translate(288.9375,151.3359375)"/>
<path d="M0 0 C7.52592433 0.6377902 14.67098882 2.19889833 22 4 C22.2475 5.093125 22.495 6.18625 22.75 7.3125 C24.09065526 11.26743302 24.58743319 11.92252512 28 14 C30.37215079 14.81011537 30.37215079 14.81011537 32.875 15.375 C37.72163172 16.72804785 40.45324534 18.45324534 44 22 C45.77097673 25.54195346 45.02850671 29.27166319 44 33 C41.0009373 36.58424566 39.28193421 37.87594185 34.609375 38.328125 C28.48943481 38.17120346 22.67267584 36.3191568 16.8125 34.6875 C15.65041016 34.37876953 14.48832031 34.07003906 13.29101562 33.75195312 C6.88986452 32.00350759 1.76642985 30.32962514 -3.375 26 C-6.41962005 20.37916298 -4.72989839 14.53852213 -3.02734375 8.6171875 C-2.07232055 5.7213107 -1.07114386 2.85472295 0 0 Z " fill="#A37252" transform="translate(177,399)"/>
<path d="M0 0 C5.9859689 15.22146378 5.9859689 15.22146378 5 22 C3.46256287 25.49564653 2.40179034 26.78790056 -1.01171875 28.58984375 C-2.22472656 29.03457031 -3.43773437 29.47929687 -4.6875 29.9375 C-5.34306885 30.18129395 -5.9986377 30.42508789 -6.67407227 30.67626953 C-8.06496266 31.19280591 -9.45819207 31.70308113 -10.85351562 32.20751953 C-13.00892487 33.00329506 -15.13693089 33.85036719 -17.265625 34.71484375 C-18.65611533 35.26856747 -20.04673665 35.82196238 -21.4375 36.375 C-22.07453857 36.63788818 -22.71157715 36.90077637 -23.36791992 37.17163086 C-28.18669741 39.03637811 -31.91787333 39.41908978 -37 39 C-39.70327174 37.70222438 -40.87226706 36.23152479 -43 34 C-44.21762731 30.34711807 -44.39075851 27.84245864 -44 24 C-39.88254753 17.76385839 -35.5984897 16.38791656 -28.61914062 14.45507812 C-26.22051156 13.7513817 -26.22051156 13.7513817 -23 12 C-22.69320313 10.84242188 -22.38640625 9.68484375 -22.0703125 8.4921875 C-21 5 -21 5 -19.22631836 3.96557617 C-16.85333958 3.1833235 -14.50405588 2.59261213 -12.0625 2.0625 C-11.23814453 1.85560547 -10.41378906 1.64871094 -9.56445312 1.43554688 C-6.27722416 0.63176465 -3.39668303 0 0 0 Z " fill="#D6E1EC" transform="translate(405,463)"/>
<path d="M0 0 C7.26 0 14.52 0 22 0 C24.14405756 19.29651801 24.14405756 19.29651801 20.6875 23.625 C12.18612398 31.13784392 -7.07655276 29.19108577 -17.96875 29.4609375 C-22.32179442 28.79900549 -24.75579535 26.64008795 -27.375 23.1875 C-28.33620615 19.82327848 -27.82844946 17.37297281 -27 14 C-24.75228177 10.51216136 -22.86248671 8.4726538 -19 7 C-15.79512345 6.72268867 -12.61597452 6.58622767 -9.40039062 6.52148438 C-5.50543589 6.37387246 -5.50543589 6.37387246 -2.09765625 4.65234375 C-0.81291671 2.87464402 -0.81291671 2.87464402 0 0 Z " fill="#D8E3EE" transform="translate(306,448)"/>
<path d="M0 0 C3.84051672 0.7967877 6.92460517 2.41967348 10.32421875 4.3359375 C10.9478833 4.68317871 11.57154785 5.03041992 12.21411133 5.38818359 C16.57654644 7.99901207 16.57654644 7.99901207 17.6171875 10.46508789 C18.01876034 14.57884173 15.34406559 17.83338585 13.32421875 21.2734375 C12.90140625 22.05783203 12.47859375 22.84222656 12.04296875 23.65039062 C10.7671673 25.8469714 9.57584288 27.74413131 7.82421875 29.5859375 C4.27734375 30.265625 4.27734375 30.265625 0.82421875 30.5859375 C-1.82432663 32.97502994 -1.82432663 32.97502994 -3.92578125 36.0234375 C-9.31930756 43.25566596 -9.31930756 43.25566596 -13.26171875 43.95703125 C-17.42469086 44.07780007 -19.59711738 43.95965792 -23.17578125 41.6484375 C-25.79492385 37.6378754 -26.48801375 34.36480308 -26.17578125 29.5859375 C-24.92437174 26.27762575 -23.09946848 23.49985015 -21.11328125 20.5859375 C-20.60539062 19.80283203 -20.0975 19.01972656 -19.57421875 18.21289062 C-18.57402215 16.67678306 -17.5637745 15.14716235 -16.54248047 13.625 C-15.40682501 11.93064588 -14.30447738 10.21402365 -13.2109375 8.4921875 C-9.65331646 2.91586547 -7.21583633 -0.11927002 0 0 Z " fill="#A27251" transform="translate(44.17578125,275.4140625)"/>
<path d="M0 0 C0 4.62 0 9.24 0 14 C-2.30901242 15.15450621 -4.10706359 15.34439182 -6.671875 15.6484375 C-7.63609375 15.76533936 -8.6003125 15.88224121 -9.59375 16.00268555 C-10.6353125 16.12554932 -11.676875 16.24841309 -12.75 16.375 C-19.24142401 17.15751843 -25.72907428 17.94657394 -32.203125 18.86328125 C-33.17926758 19.00137207 -34.15541016 19.13946289 -35.16113281 19.28173828 C-37.00486279 19.54526419 -38.84800735 19.81293121 -40.69042969 20.08544922 C-45.85391303 20.81929033 -50.78403876 21.12677684 -56 21 C-56 16.71 -56 12.42 -56 8 C-49.6403457 6.50998943 -43.32465355 5.37952723 -36.85546875 4.4921875 C-35.92326004 4.36184113 -34.99105133 4.23149475 -34.03059387 4.09719849 C-32.07703753 3.82491591 -30.12323136 3.5544203 -28.16918945 3.28564453 C-25.17785166 2.87367121 -22.18753356 2.4548172 -19.19726562 2.03515625 C-17.29172319 1.77042616 -15.38612607 1.50608929 -13.48046875 1.2421875 C-12.58877487 1.11721893 -11.69708099 0.99225037 -10.77836609 0.86349487 C-9.9468251 0.74982574 -9.11528412 0.63615662 -8.25854492 0.51904297 C-7.53068283 0.41848602 -6.80282074 0.31792908 -6.05290222 0.21432495 C-4 0 -4 0 0 0 Z " fill="#F1C44A" transform="translate(374,11)"/>
<path d="M0 0 C1.9375 1.5625 1.9375 1.5625 3 4 C3.1875 7.75 3.1875 7.75 3 11 C4.8871875 10.87625 4.8871875 10.87625 6.8125 10.75 C10.69727609 10.7706637 10.69727609 10.7706637 13.0625 12.5625 C14.39274773 16.0211441 13.85607025 18.4440159 13 22 C11 24 11 24 9.0546875 24.1953125 C7.03645833 24.13020833 5.01822917 24.06510417 3 24 C3.0928125 25.60875 3.0928125 25.60875 3.1875 27.25 C3 31 3 31 2 33.4375 C-0.71070476 35.5552381 -2.74871362 35.57130492 -6.125 35.37890625 C-8 35 -8 35 -10 33.4375 C-11.32761013 30.2014503 -11.19966912 27.46093134 -11 24 C-12.8871875 24.12375 -12.8871875 24.12375 -14.8125 24.25 C-18.69727609 24.2293363 -18.69727609 24.2293363 -21.0625 22.4375 C-22.40411569 18.9492992 -21.92678615 16.57474656 -21 13 C-17.3558226 10.5705484 -15.28758728 10.83820425 -11 11 C-11.0825 9.9275 -11.165 8.855 -11.25 7.75 C-11 4 -11 4 -9.4375 1.5625 C-6.07240983 -0.59460908 -3.91795996 -0.56988508 0 0 Z " fill="#6FD6F9" transform="translate(121,5)"/>
<path d="M0 0 C0.66 0 1.32 0 2 0 C2.20753906 0.58007812 2.41507813 1.16015625 2.62890625 1.7578125 C5.57870569 9.23722028 9.53467116 13.63813557 16.9375 16.875 C17.948125 17.24625 18.95875 17.6175 20 18 C20 18.66 20 19.32 20 20 C19.33613281 20.21914063 18.67226562 20.43828125 17.98828125 20.6640625 C11.1489658 23.12022542 7.34823175 25.25580821 4.0390625 31.94140625 C3.30630784 33.6052299 2.64579708 35.30053401 2 37 C1.34 37 0.68 37 0 37 C-0.81567174 35.56429734 -1.62742093 34.12636566 -2.4375 32.6875 C-2.88996094 31.88699219 -3.34242187 31.08648437 -3.80859375 30.26171875 C-5 28 -5 28 -6 25 C-9.60132709 22.69515066 -14.00536651 21.46469895 -18 20 C-18 19.34 -18 18.68 -18 18 C-17.33613281 17.70867187 -16.67226562 17.41734375 -15.98828125 17.1171875 C-7.31086639 13.08884016 -3.40367489 8.95703918 0 0 Z " fill="#F5C84C" transform="translate(81,390)"/>
<path d="M0 0 C3.00342896 2.05497771 3.83287356 3.47633714 4.9375 6.9375 C5.5175442 12.68750341 3.4645628 18.49754654 2 24 C-4.28260706 24.23268915 -9.88019467 23.40454548 -16 22 C-15.53036896 14.24299067 -14.97367692 6.46928974 -9.75 0.375 C-6.00504217 -1.49747891 -3.9826296 -1.15858316 0 0 Z " fill="#F0C8AD" transform="translate(80,70)"/>
<path d="M0 0 C3.49104187 0.39521229 5.39342207 1.23345859 7.98828125 3.6171875 C11.59991613 8.41139309 12.50087781 14.51435702 12.3125 20.375 C6.57939311 22.77248106 1.50768473 23.95911954 -4.6875 24.375 C-5.35416667 22.375 -6.02083333 20.375 -6.6875 18.375 C-7.05875 17.385 -7.43 16.395 -7.8125 15.375 C-8.7786111 12.06261907 -9.19734055 9.7982151 -8.6875 6.375 C-6.25 3.5625 -6.25 3.5625 -3.6875 1.375 C-2.6875 0.375 -2.6875 0.375 0 0 Z " fill="#EFC8AD" transform="translate(225.6875,61.625)"/>
<path d="M0 0 C2.6875 1.6875 2.6875 1.6875 4.6875 4.6875 C4.54782129 8.52866462 4.27943846 10.9052956 1.9375 14 C-2.6608958 17.44879685 -6.57423489 18.29152791 -12.3125 17.6875 C-14.92097629 16.19004139 -17.18278902 14.81721098 -19.3125 12.6875 C-19.6875 9.4375 -19.6875 9.4375 -19.3125 5.6875 C-13.97005038 -0.99056203 -8.23351912 -3.26233776 0 0 Z " fill="#EBC049" transform="translate(303.3125,74.3125)"/>
<path d="M0 0 C2.85142288 1.34184606 3.87845438 2.49766414 6 5 C6.8116783 8.89605586 6.3834108 10.39749731 4.25 13.75 C0.80158686 17.19841314 -2.0125562 18.3087437 -6.875 18.4375 C-10.40361081 18.35385885 -12.78818575 18.00164879 -15.6875 15.9375 C-18 13 -18 13 -18.25 9.5 C-15.32096537 1.29870304 -8.16315907 -1.20327973 0 0 Z " fill="#F0C44A" transform="translate(368,64)"/>
<path d="M0 0 C3 1 3 1 4.6875 4.3125 C7.02343781 8.76452265 10.45500204 10.2239207 15 12 C14 14 14 14 11.1875 15.3125 C7.71385004 17.15149116 6.24659417 18.82378065 4 22 C3.00270658 23.33535898 2.00316209 24.6690441 1 26 C0.64808594 25.38511719 0.29617188 24.77023437 -0.06640625 24.13671875 C-3.45164707 18.59482321 -5.73353153 15.87994054 -12 14 C-12 13.34 -12 12.68 -12 12 C-10.35546875 10.8515625 -10.35546875 10.8515625 -8.1875 9.625 C-3.8257467 7.00486551 -1.63097275 4.89291826 0 0 Z " fill="#FC657D" transform="translate(458,378)"/>
<path d="M0 0 C2.6923481 2.18753283 2.93936827 3.58423955 3.4375 7 C3 10 3 10 1.375 12.375 C-1.69477548 14.4753727 -3.34556561 14.53293835 -7 14 C-9.375 13 -9.375 13 -11 11 C-11.65964122 7.44238446 -11.63041883 4.26083766 -10 1 C-6.73916234 -0.63041883 -3.55761554 -0.65964122 0 0 Z " fill="#86D147" transform="translate(141,467)"/>
<path d="M0 0 C2.6923481 2.18753283 2.93936827 3.58423955 3.4375 7 C3 10 3 10 1.375 12.375 C-1.69477548 14.4753727 -3.34556561 14.53293835 -7 14 C-9.375 13 -9.375 13 -11 11 C-11.65964122 7.44238446 -11.63041883 4.26083766 -10 1 C-6.73916234 -0.63041883 -3.55761554 -0.65964122 0 0 Z " fill="#F5C84C" transform="translate(195,0)"/>
</svg>
